<svg width="52" height="24" viewBox="0 0 52 24" fill="none" xmlns="http://www.w3.org/2000/svg">
<path d="M20.0755 12.18H23.7696V0H5.9337C2.65744 0 0 2.72684 0 6.08865C0 8.72752 1.63679 10.9761 3.92722 11.82H0.233062V24H18.0663C21.3452 24 24 21.2732 24 17.9114C24 15.2725 22.3632 13.0239 20.0728 12.18H20.0755Z" fill="#636363"/>
<path d="M45.9848 0H29.6475C28.3357 0 27.2727 1.07231 27.2727 2.39563V24L38.7033 18.1337H44.8758C48.4083 18.1337 51.2727 15.2442 51.2727 11.6808V5.33424C51.2727 2.38745 48.906 0 45.9848 0Z" fill="#E2242F"/>
</svg>
